<svg id="右菜单" xmlns="http://www.w3.org/2000/svg" width="103" height="103" viewBox="0 0 103 103">
  <rect id="矩形_74" data-name="矩形 74" width="103" height="103"/>
  <g id="_003_发送" data-name="003_发送" transform="translate(4 13)">
    <path id="路径_29" data-name="路径 29" d="M195.1,183.382a8.231,8.231,0,0,0-4.833-4.027,7.16,7.16,0,0,0-4.608.076l-68.014,23.9a8.06,8.06,0,0,0-4.692,4.48,9.33,9.33,0,0,0-.213,6.826,8.415,8.415,0,0,0,4.318,4.84l10.081,4.889,6.938,23.2a8.782,8.782,0,0,0,5.6,6.1,7.773,7.773,0,0,0,7.724-1.754,4.16,4.16,0,0,0,.3-.3l7.576-8.147,11.343,11.418a.094.094,0,0,0,.015.015l.036.037.04.038a8.545,8.545,0,0,0,5.9,2.437,8.108,8.108,0,0,0,.833-.043,8.41,8.41,0,0,0,1.768-.384,9.423,9.423,0,0,0,6.049-6.865l14.646-60.043a9.394,9.394,0,0,0-.813-6.694Zm-5.257,4.909L175.2,248.327a2.81,2.81,0,0,1-1.8,2.049,2.657,2.657,0,0,1-.544.115,2.48,2.48,0,0,1-1.983-.7l-13.535-13.621a2.941,2.941,0,0,0-4.32.078l-9.676,10.4a1.913,1.913,0,0,1-1.9.392,2.171,2.171,0,0,1-1.358-1.507c-.007-.029-.016-.058-.024-.085l-7.386-24.7a3.356,3.356,0,0,0-1.717-2.08l-11.392-5.523c-.024-.012-.049-.024-.074-.035a1.771,1.771,0,0,1-.9-1.008,1.719,1.719,0,0,1,.028-1.294,1.56,1.56,0,0,1,.943-.9l68.012-23.9a1.423,1.423,0,0,1,.935-.025c.04.014.079.025.117.037a1.814,1.814,0,0,1,1.068.874,1.931,1.931,0,0,1,.154,1.4Z" transform="translate(-112.195 -179.011)" fill="#e5e5e5"/>
    <path id="路径_30" data-name="路径 30" d="M391.788,329.982l-34.035,13.845a3.217,3.217,0,1,0,2.425,5.959l30.142-12.261-14.905,17.751a3.217,3.217,0,1,0,4.836,4.243L397.9,338.635a5.394,5.394,0,0,0-6.112-8.654Z" transform="translate(-330.864 -311.31)" fill="#e5e5e5"/>
  </g>
</svg>
