<svg xmlns="http://www.w3.org/2000/svg" width="415" height="53" viewBox="0 0 415 53">
  <g id="组_7" data-name="组 7" transform="translate(-752 -638)">
    <path id="多边形_1" data-name="多边形 1" d="M19.115,5.31a2,2,0,0,1,3.77,0l5.242,14.767a2,2,0,0,0,.345.608L38.494,32.772a2,2,0,0,1-1.9,3.244L21.358,33.242a2,2,0,0,0-.716,0L5.4,36.016a2,2,0,0,1-1.9-3.244L13.528,20.685a2,2,0,0,0,.345-.608Z" transform="translate(939 641)" fill="#ff7958"/>
    <text id="想我所想" transform="translate(752 681)" fill="#ff7958" font-size="40" font-family="YuGothicUI-Bold, Yu Gothic UI" font-weight="700"><tspan x="0" y="0">想我所想</tspan></text>
    <text id="尽我所能" transform="translate(1007 681)" fill="#ff7958" font-size="40" font-family="YuGothicUI-Bold, Yu Gothic UI" font-weight="700"><tspan x="0" y="0">尽我所能</tspan></text>
    <path id="多边形_2" data-name="多边形 2" d="M19.115,5.31a2,2,0,0,1,3.77,0l5.242,14.767a2,2,0,0,0,.345.608L38.494,32.772a2,2,0,0,1-1.9,3.244L21.358,33.242a2,2,0,0,0-.716,0L5.4,36.016a2,2,0,0,1-1.9-3.244L13.528,20.685a2,2,0,0,0,.345-.608Z" transform="translate(981 691) rotate(180)" fill="#ff7958"/>
  </g>
</svg>
