<svg xmlns="http://www.w3.org/2000/svg" width="263.983" height="293.975" viewBox="0 0 263.983 293.975">
  <g id="组_17" data-name="组 17" transform="translate(4.113 4.1)">
    <path id="路径_31" data-name="路径 31" d="M123.939,152.792s-11.045-14.058-9.037-19.078,5.021-11.045,5.021-11.045L70.59,93.96l.131,57.828s7.029,0,12.05,2.008,11.045,16.066,11.045,16.066L70.59,187.826v37.836s34.271,4.448,44.814-6.1,11.3-26.83,11.3-26.83.251-22.874,13.807-29.4,44.141-3.524,44.141-3.524v131.7l-65.73-37.3,39.161-7.029,13.05-20.079" transform="translate(-70.59 -4.633)" fill="none" stroke="#f30" stroke-linecap="round" stroke-linejoin="round" stroke-width="6"/>
    <line id="直线_39" data-name="直线 39" x1="19.209" y1="32.243" transform="translate(0 90.813)" fill="none" stroke="#f30" stroke-linecap="round" stroke-linejoin="round" stroke-width="6"/>
    <circle id="椭圆_3" data-name="椭圆 3" cx="7.531" cy="7.531" r="7.531" transform="translate(14.188 120.043)" fill="#ff3e0f"/>
    <path id="路径_32" data-name="路径 32" d="M325.779,93.47,211.72,159.321v131.7l37.976-21.93,11.226-51.03L289.038,202l15.142,35.637,21.6-12.461" transform="translate(-70.007 -4.635)" fill="none" stroke="#f30" stroke-linecap="round" stroke-linejoin="round" stroke-width="6"/>
    <path id="路径_33" data-name="路径 33" d="M260.815,217.872l-23.1,1V179.153l67.728-39.6v52.506l-17.6,10.363" transform="translate(-69.9 -4.444)" fill="none" stroke="#f30" stroke-linecap="round" stroke-linejoin="round" stroke-width="6"/>
    <path id="路径_34" data-name="路径 34" d="M305.17,158.408l20.223-18.858v34.472l-20.223.894" transform="translate(-69.621 -4.444)" fill="none" stroke="#f30" stroke-linecap="round" stroke-linejoin="round" stroke-width="6"/>
    <line id="直线_40" data-name="直线 40" y1="28.326" x2="49.363" transform="translate(93.354 87.911)" fill="none" stroke="#f30" stroke-linecap="round" stroke-linejoin="round" stroke-width="6"/>
    <line id="直线_41" data-name="直线 41" y1="11.236" x2="19.751" transform="translate(79.537 97.441)" fill="none" stroke="#f30" stroke-linecap="round" stroke-linejoin="round" stroke-width="6"/>
    <line id="直线_42" data-name="直线 42" y1="4.699" x2="8.957" transform="translate(68.873 96.688)" fill="none" stroke="#f30" stroke-linecap="round" stroke-linejoin="round" stroke-width="6"/>
    <line id="直线_43" data-name="直线 43" y1="4.699" x2="8.957" transform="translate(45.075 82.439)" fill="none" stroke="#f30" stroke-linecap="round" stroke-linejoin="round" stroke-width="6"/>
    <path id="路径_35" data-name="路径 35" d="M289.182,65.55,176.72,128.81l20.926,12.3L316.294,72.579" transform="translate(-70.152 -4.75)" fill="none" stroke="#f30" stroke-linecap="round" stroke-linejoin="round" stroke-width="6"/>
    <line id="直线_44" data-name="直线 44" y1="11.236" x2="19.751" transform="translate(154.094 69.837)" fill="none" stroke="#f30" stroke-linecap="round" stroke-linejoin="round" stroke-width="6"/>
    <line id="直线_45" data-name="直线 45" y1="4.699" x2="8.947" transform="translate(189.891 56.221)" fill="none" stroke="#f30" stroke-linecap="round" stroke-linejoin="round" stroke-width="6"/>
    <line id="直线_46" data-name="直线 46" y1="26.318" x2="45.356" transform="translate(112.924 63.792)" fill="none" stroke="#f30" stroke-linecap="round" stroke-linejoin="round" stroke-width="6"/>
    <line id="直线_47" data-name="直线 47" y1="4.699" x2="8.957" transform="translate(144.926 52.426)" fill="none" stroke="#f30" stroke-linecap="round" stroke-linejoin="round" stroke-width="6"/>
    <line id="直线_48" data-name="直线 48" y1="26.318" x2="45.356" transform="translate(56.693 67.809)" fill="none" stroke="#f30" stroke-linecap="round" stroke-linejoin="round" stroke-width="6"/>
    <line id="直线_49" data-name="直线 49" y1="26.318" x2="45.356" transform="translate(73.763 43.71)" fill="none" stroke="#f30" stroke-linecap="round" stroke-linejoin="round" stroke-width="6"/>
    <line id="直线_50" data-name="直线 50" y1="4.699" x2="8.957" transform="translate(56.824 60.539)" fill="none" stroke="#f30" stroke-linecap="round" stroke-linejoin="round" stroke-width="6"/>
    <line id="直线_51" data-name="直线 51" y1="11.236" x2="19.751" transform="translate(22.974 63.3)" fill="none" stroke="#f30" stroke-linecap="round" stroke-linejoin="round" stroke-width="6"/>
    <line id="直线_52" data-name="直线 52" y1="4.699" x2="8.947" transform="translate(11.086 63.089)" fill="none" stroke="#f30" stroke-linecap="round" stroke-linejoin="round" stroke-width="6"/>
    <line id="直线_53" data-name="直线 53" y1="26.318" x2="45.356" transform="translate(82.108)" fill="none" stroke="#f30" stroke-linecap="round" stroke-linejoin="round" stroke-width="6"/>
    <line id="直线_54" data-name="直线 54" x1="45.356" y1="26.318" transform="translate(128.298)" fill="none" stroke="#f30" stroke-linecap="round" stroke-linejoin="round" stroke-width="6"/>
  </g>
</svg>
