<svg xmlns="http://www.w3.org/2000/svg" width="436" height="340" viewBox="0 0 436 340">
  <g id="组_15" data-name="组 15" transform="translate(-1544 -660.831)">
    <rect id="矩形_38" data-name="矩形 38" width="123" height="90" transform="translate(1857 910.831)" fill="#f5f5f3"/>
    <rect id="矩形_37" data-name="矩形 37" width="123" height="90" transform="translate(1544 910.831)" fill="#f5f5f3"/>
    <rect id="矩形_36" data-name="矩形 36" width="28" height="108" transform="translate(1841 892.831)" fill="#e1eae9"/>
    <rect id="矩形_35" data-name="矩形 35" width="28" height="108" transform="translate(1658 892.831)" fill="#e1eae9"/>
    <rect id="矩形_32" data-name="矩形 32" width="146" height="319" transform="translate(1689 681.831)" fill="#d0d4d5"/>
    <rect id="矩形_33" data-name="矩形 33" width="111" height="328" transform="translate(1707 672.831)" fill="#f0f0f0"/>
    <rect id="矩形_34" data-name="矩形 34" width="85" height="72" transform="translate(1718 696.831)" fill="#dee0df"/>
    <g id="组_13" data-name="组 13" transform="translate(1553.039 660.831)">
      <g id="组_12" data-name="组 12" transform="translate(0 262.045)">
        <rect id="矩形_24" data-name="矩形 24" width="15" height="12" transform="translate(-0.039 -0.045)" fill="#184467"/>
        <rect id="矩形_24-2" data-name="矩形 24" width="15" height="12" transform="translate(20.961 -0.045)" fill="#184467"/>
        <rect id="矩形_24-3" data-name="矩形 24" width="14" height="12" transform="translate(42.961 -0.045)" fill="#184467"/>
        <rect id="矩形_24-4" data-name="矩形 24" width="15" height="12" transform="translate(62.961 -0.045)" fill="#184467"/>
        <rect id="矩形_24-5" data-name="矩形 24" width="15" height="12" transform="translate(83.961 -0.045)" fill="#184467"/>
        <rect id="矩形_24-6" data-name="矩形 24" width="15" height="11" transform="translate(-0.039 17.955)" fill="#184467"/>
        <rect id="矩形_24-7" data-name="矩形 24" width="15" height="11" transform="translate(20.961 17.955)" fill="#184467"/>
        <rect id="矩形_24-8" data-name="矩形 24" width="14" height="11" transform="translate(42.961 17.955)" fill="#184467"/>
        <rect id="矩形_24-9" data-name="矩形 24" width="15" height="11" transform="translate(62.961 17.955)" fill="#184467"/>
        <rect id="矩形_24-10" data-name="矩形 24" width="15" height="11" transform="translate(83.961 17.955)" fill="#184467"/>
        <rect id="矩形_24-11" data-name="矩形 24" width="15" height="13" transform="translate(-0.039 34.955)" fill="#184467"/>
        <rect id="矩形_24-12" data-name="矩形 24" width="15" height="13" transform="translate(20.961 34.955)" fill="#184467"/>
        <rect id="矩形_24-13" data-name="矩形 24" width="14" height="13" transform="translate(42.961 34.955)" fill="#184467"/>
        <rect id="矩形_24-14" data-name="矩形 24" width="15" height="13" transform="translate(62.961 34.955)" fill="#184467"/>
        <rect id="矩形_24-15" data-name="矩形 24" width="15" height="13" transform="translate(83.961 34.955)" fill="#184467"/>
        <rect id="矩形_24-16" data-name="矩形 24" width="15" height="12" transform="translate(-0.039 53.955)" fill="#184467"/>
        <rect id="矩形_24-17" data-name="矩形 24" width="15" height="12" transform="translate(20.961 53.955)" fill="#184467"/>
        <rect id="矩形_24-18" data-name="矩形 24" width="14" height="12" transform="translate(42.961 53.955)" fill="#184467"/>
        <rect id="矩形_24-19" data-name="矩形 24" width="15" height="12" transform="translate(62.961 53.955)" fill="#184467"/>
        <rect id="矩形_24-20" data-name="矩形 24" width="15" height="12" transform="translate(83.961 53.955)" fill="#184467"/>
      </g>
      <rect id="矩形_25" data-name="矩形 25" width="15" height="9" transform="translate(176.961 117)" fill="#26709f"/>
      <rect id="矩形_25-2" data-name="矩形 25" width="15" height="9" transform="translate(176.961 133)" fill="#26709f"/>
      <rect id="矩形_25-3" data-name="矩形 25" width="15" height="9" transform="translate(176.961 148)" fill="#26709f"/>
      <rect id="矩形_25-4" data-name="矩形 25" width="15" height="9" transform="translate(176.961 163)" fill="#26709f"/>
      <rect id="矩形_25-5" data-name="矩形 25" width="15" height="8" transform="translate(176.961 178)" fill="#26709f"/>
      <rect id="矩形_25-6" data-name="矩形 25" width="15" height="9" transform="translate(176.961 192)" fill="#26709f"/>
      <rect id="矩形_25-7" data-name="矩形 25" width="15" height="10" transform="translate(176.961 207)" fill="#26709f"/>
      <rect id="矩形_25-8" data-name="矩形 25" width="15" height="9" transform="translate(176.961 223)" fill="#26709f"/>
      <rect id="矩形_25-9" data-name="矩形 25" width="15" height="9" transform="translate(176.961 238)" fill="#26709f"/>
      <rect id="矩形_25-10" data-name="矩形 25" width="15" height="9" transform="translate(176.961 253)" fill="#26709f"/>
      <rect id="矩形_26" data-name="矩形 26" width="9" height="313" transform="translate(129.961 27)" fill="#40a4d8"/>
      <rect id="矩形_27" data-name="矩形 27" width="18" height="9" transform="translate(135.961 21)" fill="#1998dd"/>
      <rect id="矩形_27-2" data-name="矩形 27" width="18" height="9" transform="translate(135.961 75)" fill="#1998dd"/>
      <rect id="矩形_27-3" data-name="矩形 27" width="18" height="9" transform="translate(135.961 130)" fill="#1998dd"/>
      <rect id="矩形_27-4" data-name="矩形 27" width="18" height="9" transform="translate(135.961 183)" fill="#1998dd"/>
      <rect id="矩形_27-5" data-name="矩形 27" width="18" height="9" transform="translate(135.961 238)" fill="#1998dd"/>
      <rect id="矩形_27-6" data-name="矩形 27" width="18" height="9" transform="translate(135.961 291)" fill="#1998dd"/>
      <rect id="矩形_28" data-name="矩形 28" width="23" height="21" transform="translate(135.961 0)" fill="#a2dbee"/>
      <rect id="矩形_29" data-name="矩形 29" width="27" height="12" transform="translate(164.961 0)" fill="#a2dbee"/>
      <rect id="矩形_30" data-name="矩形 30" width="6" height="9" transform="translate(110.961 238)" fill="#587d98"/>
      <rect id="矩形_30-2" data-name="矩形 30" width="6" height="9" transform="translate(110.961 253)" fill="#587d98"/>
      <rect id="矩形_30-3" data-name="矩形 30" width="6" height="9" transform="translate(110.961 268)" fill="#587d98"/>
      <rect id="矩形_30-4" data-name="矩形 30" width="6" height="8" transform="translate(110.961 283)" fill="#587d98"/>
      <rect id="矩形_30-5" data-name="矩形 30" width="6" height="10" transform="translate(110.961 297)" fill="#587d98"/>
      <rect id="矩形_30-6" data-name="矩形 30" width="6" height="9" transform="translate(110.961 313)" fill="#587d98"/>
    </g>
    <g id="组_14" data-name="组 14" transform="translate(1775.625 660.831)">
      <g id="组_12-2" data-name="组 12" transform="translate(93.081 262.045)">
        <rect id="矩形_24-21" data-name="矩形 24" width="15" height="12" transform="translate(84.293 -0.045)" fill="#184467"/>
        <rect id="矩形_24-22" data-name="矩形 24" width="16" height="12" transform="translate(62.293 -0.045)" fill="#184467"/>
        <rect id="矩形_24-23" data-name="矩形 24" width="15" height="12" transform="translate(42.293 -0.045)" fill="#184467"/>
        <rect id="矩形_24-24" data-name="矩形 24" width="15" height="12" transform="translate(21.293 -0.045)" fill="#184467"/>
        <rect id="矩形_24-25" data-name="矩形 24" width="15" height="12" transform="translate(0.293 -0.045)" fill="#184467"/>
        <rect id="矩形_24-26" data-name="矩形 24" width="15" height="11" transform="translate(84.293 17.955)" fill="#184467"/>
        <rect id="矩形_24-27" data-name="矩形 24" width="16" height="11" transform="translate(62.293 17.955)" fill="#184467"/>
        <rect id="矩形_24-28" data-name="矩形 24" width="15" height="11" transform="translate(42.293 17.955)" fill="#184467"/>
        <rect id="矩形_24-29" data-name="矩形 24" width="15" height="11" transform="translate(21.293 17.955)" fill="#184467"/>
        <rect id="矩形_24-30" data-name="矩形 24" width="15" height="11" transform="translate(0.293 17.955)" fill="#184467"/>
        <rect id="矩形_24-31" data-name="矩形 24" width="15" height="13" transform="translate(84.293 34.955)" fill="#184467"/>
        <rect id="矩形_24-32" data-name="矩形 24" width="16" height="13" transform="translate(62.293 34.955)" fill="#184467"/>
        <rect id="矩形_24-33" data-name="矩形 24" width="15" height="13" transform="translate(42.293 34.955)" fill="#184467"/>
        <rect id="矩形_24-34" data-name="矩形 24" width="15" height="13" transform="translate(21.293 34.955)" fill="#184467"/>
        <rect id="矩形_24-35" data-name="矩形 24" width="15" height="13" transform="translate(0.293 34.955)" fill="#184467"/>
        <rect id="矩形_24-36" data-name="矩形 24" width="15" height="12" transform="translate(84.293 53.955)" fill="#184467"/>
        <rect id="矩形_24-37" data-name="矩形 24" width="16" height="12" transform="translate(62.293 53.955)" fill="#184467"/>
        <rect id="矩形_24-38" data-name="矩形 24" width="15" height="12" transform="translate(42.293 53.955)" fill="#184467"/>
        <rect id="矩形_24-39" data-name="矩形 24" width="15" height="12" transform="translate(21.293 53.955)" fill="#184467"/>
        <rect id="矩形_24-40" data-name="矩形 24" width="15" height="12" transform="translate(0.293 53.955)" fill="#184467"/>
      </g>
      <rect id="矩形_25-11" data-name="矩形 25" width="15" height="9" transform="translate(0.375 117)" fill="#26709f"/>
      <rect id="矩形_25-12" data-name="矩形 25" width="15" height="9" transform="translate(0.375 133)" fill="#26709f"/>
      <rect id="矩形_25-13" data-name="矩形 25" width="15" height="9" transform="translate(0.375 148)" fill="#26709f"/>
      <rect id="矩形_25-14" data-name="矩形 25" width="15" height="9" transform="translate(0.375 163)" fill="#26709f"/>
      <rect id="矩形_25-15" data-name="矩形 25" width="15" height="8" transform="translate(0.375 178)" fill="#26709f"/>
      <rect id="矩形_25-16" data-name="矩形 25" width="15" height="9" transform="translate(0.375 192)" fill="#26709f"/>
      <rect id="矩形_25-17" data-name="矩形 25" width="15" height="10" transform="translate(0.375 207)" fill="#26709f"/>
      <rect id="矩形_25-18" data-name="矩形 25" width="15" height="9" transform="translate(0.375 223)" fill="#26709f"/>
      <rect id="矩形_25-19" data-name="矩形 25" width="15" height="9" transform="translate(0.375 238)" fill="#26709f"/>
      <rect id="矩形_25-20" data-name="矩形 25" width="15" height="9" transform="translate(0.375 253)" fill="#26709f"/>
      <rect id="矩形_26-2" data-name="矩形 26" width="9" height="313" transform="translate(53.375 27)" fill="#40a4d8"/>
      <rect id="矩形_27-7" data-name="矩形 27" width="17" height="9" transform="translate(39.375 21)" fill="#1998dd"/>
      <rect id="矩形_27-8" data-name="矩形 27" width="17" height="9" transform="translate(39.375 75)" fill="#1998dd"/>
      <rect id="矩形_27-9" data-name="矩形 27" width="17" height="9" transform="translate(39.375 130)" fill="#1998dd"/>
      <rect id="矩形_27-10" data-name="矩形 27" width="17" height="9" transform="translate(39.375 183)" fill="#1998dd"/>
      <rect id="矩形_27-11" data-name="矩形 27" width="17" height="9" transform="translate(39.375 238)" fill="#1998dd"/>
      <rect id="矩形_27-12" data-name="矩形 27" width="17" height="9" transform="translate(39.375 291)" fill="#1998dd"/>
      <rect id="矩形_28-2" data-name="矩形 28" width="23" height="21" transform="translate(33.375 0)" fill="#a2dbee"/>
      <rect id="矩形_29-2" data-name="矩形 29" width="27" height="12" transform="translate(0.375 0)" fill="#a2dbee"/>
      <rect id="矩形_30-7" data-name="矩形 30" width="7" height="9" transform="translate(74.375 238)" fill="#587d98"/>
      <rect id="矩形_30-8" data-name="矩形 30" width="7" height="9" transform="translate(74.375 253)" fill="#587d98"/>
      <rect id="矩形_30-9" data-name="矩形 30" width="7" height="9" transform="translate(74.375 268)" fill="#587d98"/>
      <rect id="矩形_30-10" data-name="矩形 30" width="7" height="8" transform="translate(74.375 283)" fill="#587d98"/>
      <rect id="矩形_30-11" data-name="矩形 30" width="7" height="10" transform="translate(74.375 297)" fill="#587d98"/>
      <rect id="矩形_30-12" data-name="矩形 30" width="7" height="9" transform="translate(74.375 313)" fill="#587d98"/>
    </g>
    <rect id="矩形_31" data-name="矩形 31" width="19" height="12" transform="translate(1751 660.831)" fill="#a2dbee"/>
    <path id="路径_26" data-name="路径 26" d="M1654.486,2032.854h8.57v-23.529h-57.131v23.529h10.524v-16.012h38.037Z" transform="translate(124.278 -1296.229)" fill="#a8aaa7"/>
    <path id="路径_27" data-name="路径 27" d="M1605.925,2028.679v12.028H1660.5v-12.028h-21.048v-13h-10.975v13Z" transform="translate(124.278 -1283.484)" fill="#a8aaa7"/>
    <rect id="矩形_39" data-name="矩形 39" width="31" height="157" transform="translate(1745 768.831)" fill="#1e5f88"/>
    <rect id="矩形_40" data-name="矩形 40" width="76" height="29" transform="translate(1721 925.831)" fill="#7499ac"/>
    <rect id="矩形_41" data-name="矩形 41" width="15" height="40" transform="translate(1727 954.831)" fill="#5896bb"/>
    <rect id="矩形_42" data-name="矩形 42" width="15" height="40" transform="translate(1776 954.831)" fill="#5896bb"/>
    <rect id="矩形_43" data-name="矩形 43" width="16" height="40" transform="translate(1751 954.831)" fill="#1e5f88"/>
  </g>
</svg>
