<svg xmlns="http://www.w3.org/2000/svg" width="533.787" height="169.36" viewBox="0 0 533.787 169.36">
  <g id="组_8" data-name="组 8" transform="translate(1045.238 -440.312)">
    <path id="路径_14" data-name="路径 14" d="M1211.327,3354.834l-68.828-4.916s-79.808,26.794-162.811,25.647S824,3349.918,824,3349.918l-67.189,4.916v40.4L824,3390.887s101.03,22.369,155.683,20.73,162.811-20.73,162.811-20.73l68.828,4.343Z" transform="translate(-1748.167 -2909.1)" fill="#d9d9d9" stroke="#c3c3c3" stroke-width="1"/>
    <line id="直线_33" data-name="直线 33" y2="39.55" transform="translate(-924.445 440.818)" fill="none" stroke="#c3c3c3" stroke-width="1"/>
    <path id="路径_13" data-name="路径 13" d="M1212.027,3380.426l-72.275-4.275s-89.851,19.794-150.628,21.1-165.329-21.1-165.329-21.1l-66.279,4.275s78.353,24.162,107.345,28.53,93.054,9.293,120.486,9.293,89.194-2.509,125.332-9.293S1212.027,3380.426,1212.027,3380.426Z" transform="translate(-1748.868 -2895.782)" fill="#8b8b8b" stroke="#8b8b8b" stroke-width="1"/>
    <path id="路径_12" data-name="路径 12" d="M969.046,3384l42.521,20.56v90.385H969.046Z" transform="translate(-1898.816 -2886.042)" fill="#b8b8b8" stroke="#707070" stroke-width="1"/>
    <path id="路径_15" data-name="路径 15" d="M876.15,3629.652h15.744l27.381,6.084v32.743H876.15v-38.828Z" transform="translate(-1822.423 -3059.308)" fill="#a1babe" stroke="#707070" stroke-width="1"/>
    <line id="直线_35" data-name="直线 35" x2="42.592" transform="translate(-946.274 586.716)" fill="none" stroke="#707070" stroke-width="1"/>
    <g id="矩形_2" data-name="矩形 2" transform="translate(-1045.238 496.294)" fill="#989898" stroke="#707070" stroke-width="1">
      <rect width="115.661" height="112.748" stroke="none"/>
      <rect x="0.5" y="0.5" width="114.661" height="111.748" fill="none"/>
    </g>
    <line id="直线_36" data-name="直线 36" y2="39.55" transform="translate(-929.009 570.117)" fill="none" stroke="#707070" stroke-width="1"/>
    <g id="矩形_1" data-name="矩形 1" transform="translate(-627.112 496.294)" fill="#989898" stroke="#707070" stroke-width="1">
      <rect width="115.661" height="112.748" stroke="none"/>
      <rect x="0.5" y="0.5" width="114.661" height="111.748" fill="none"/>
    </g>
    <line id="直线_34" data-name="直线 34" y2="41.071" transform="translate(-605.002 440.818)" fill="none" stroke="#c3c3c3" stroke-width="1"/>
    <path id="路径_16" data-name="路径 16" d="M919.275,3629.652H903.531l-27.381,6.084v32.743h43.125v-38.828Z" transform="translate(-1528.84 -3060.069)" fill="#a1babe" stroke="#707070" stroke-width="1"/>
    <line id="直线_38" data-name="直线 38" y2="39.55" transform="translate(-626.831 569.356)" fill="none" stroke="#707070" stroke-width="1"/>
    <line id="直线_37" data-name="直线 37" x1="42.592" transform="translate(-652.158 585.955)" fill="none" stroke="#707070" stroke-width="1"/>
    <path id="路径_11" data-name="路径 11" d="M1011.568,3384l-42.521,20.86v91.7h42.521Z" transform="translate(-1638.627 -2887.662)" fill="#b8b8b8" stroke="#707070" stroke-width="1"/>
  </g>
</svg>
    