<svg xmlns="http://www.w3.org/2000/svg" width="123.59" height="206.74" viewBox="0 0 123.59 206.74">
  <g id="组_123" data-name="组 123" transform="translate(-826.915 -393.685)">
    <circle id="circle" data-name="椭圆 2" cx="7.5" cy="7.5" r="7.5" transform="translate(846.045 429.275)" fill="#ff3e0f"/>
    <line id="line" data-name="直线 17" x1="19.13" y1="32.11" transform="translate(831.915 400.165)" fill="none" stroke="#f30" stroke-linecap="round" stroke-linejoin="round" stroke-width="7"/>
    <path id="line" data-name="路径 6" d="M123.72,152.55s-11-14-9-19,5-11,5-11L70.59,93.96l.13,57.59s7,0,12,2,11,16,11,16L70.59,187.44v37.68s34.13,4.43,44.63-6.07,11.25-26.72,11.25-26.72.25-22.78,13.75-29.28,43.96-3.51,43.96-3.51V290.7l-65.46-37.15,39-7,13-20" transform="translate(761.325 304.725)" fill="none" stroke="#f30" stroke-linecap="round" stroke-linejoin="round" stroke-width="10"/>
  </g>
</svg>
