<svg xmlns="http://www.w3.org/2000/svg" width="174.501" height="193.615" viewBox="0 0 174.501 193.615">
  <g id="组_17" data-name="组 17" transform="translate(-120.757 -44.9)">
    <path id="路径_31" data-name="路径 31" d="M105.275,132.21s-7.181-9.14-5.876-12.4,3.264-7.181,3.264-7.181L70.59,93.96l.085,37.6a25.216,25.216,0,0,1,7.834,1.306c3.264,1.306,7.181,10.445,7.181,10.445l-15.1,11.679v24.6s22.281,2.892,29.136-3.963,7.344-17.444,7.344-17.444.163-14.872,8.976-19.115,28.7-2.291,28.7-2.291V222.4l-42.735-24.253,25.461-4.57,8.487-13.057" transform="translate(54.28 13.116)" fill="none" stroke="#f30" stroke-linecap="round" stroke-linejoin="round" stroke-width="6"/>
    <line id="直线_39" data-name="直线 39" x1="12.489" y1="20.963" transform="translate(124.87 108.042)" fill="none" stroke="#f30" stroke-linecap="round" stroke-linejoin="round" stroke-width="6"/>
    <circle id="椭圆_3" data-name="椭圆 3" cx="4.896" cy="4.896" r="4.896" transform="translate(134.095 127.046)" fill="#ff3e0f"/>
    <path id="路径_32" data-name="路径 32" d="M285.875,93.47,211.72,136.283v85.626l24.69-14.258,7.3-33.177,18.279-10.445,9.845,23.169,14.042-8.1" transform="translate(5.285 13.286)" fill="none" stroke="#f30" stroke-linecap="round" stroke-linejoin="round" stroke-width="6"/>
    <path id="路径_33" data-name="路径 33" d="M252.735,190.471l-15.015.653V165.3l44.034-25.748v34.137l-11.444,6.737" transform="translate(-3.742 -2.711)" fill="none" stroke="#f30" stroke-linecap="round" stroke-linejoin="round" stroke-width="6"/>
    <path id="路径_34" data-name="路径 34" d="M305.17,151.81l13.148-12.26v22.412l-13.148.581" transform="translate(-27.158 -2.711)" fill="none" stroke="#f30" stroke-linecap="round" stroke-linejoin="round" stroke-width="6"/>
    <line id="直线_40" data-name="直线 40" y1="18.416" x2="32.093" transform="translate(185.564 106.156)" fill="none" stroke="#f30" stroke-linecap="round" stroke-linejoin="round" stroke-width="6"/>
    <line id="直线_41" data-name="直线 41" y1="7.305" x2="12.841" transform="translate(176.581 112.351)" fill="none" stroke="#f30" stroke-linecap="round" stroke-linejoin="round" stroke-width="6"/>
    <line id="直线_42" data-name="直线 42" y1="3.055" x2="5.823" transform="translate(169.648 111.861)" fill="none" stroke="#f30" stroke-linecap="round" stroke-linejoin="round" stroke-width="6"/>
    <line id="直线_43" data-name="直线 43" y1="3.055" x2="5.823" transform="translate(154.176 102.598)" fill="none" stroke="#f30" stroke-linecap="round" stroke-linejoin="round" stroke-width="6"/>
    <path id="路径_35" data-name="路径 35" d="M249.837,65.55,176.72,106.679l13.605,8L267.464,70.12" transform="translate(17.435 22.979)" fill="none" stroke="#f30" stroke-linecap="round" stroke-linejoin="round" stroke-width="6"/>
    <line id="直线_44" data-name="直线 44" y1="7.305" x2="12.841" transform="translate(225.054 94.405)" fill="none" stroke="#f30" stroke-linecap="round" stroke-linejoin="round" stroke-width="6"/>
    <line id="直线_45" data-name="直线 45" y1="3.055" x2="5.817" transform="translate(248.328 85.552)" fill="none" stroke="#f30" stroke-linecap="round" stroke-linejoin="round" stroke-width="6"/>
    <line id="直线_46" data-name="直线 46" y1="17.111" x2="29.489" transform="translate(198.288 90.474)" fill="none" stroke="#f30" stroke-linecap="round" stroke-linejoin="round" stroke-width="6"/>
    <line id="直线_47" data-name="直线 47" y1="3.055" x2="5.823" transform="translate(219.094 83.084)" fill="none" stroke="#f30" stroke-linecap="round" stroke-linejoin="round" stroke-width="6"/>
    <line id="直线_48" data-name="直线 48" y1="17.111" x2="29.489" transform="translate(161.729 93.086)" fill="none" stroke="#f30" stroke-linecap="round" stroke-linejoin="round" stroke-width="6"/>
    <line id="直线_49" data-name="直线 49" y1="17.111" x2="29.489" transform="translate(172.827 77.418)" fill="none" stroke="#f30" stroke-linecap="round" stroke-linejoin="round" stroke-width="6"/>
    <line id="直线_50" data-name="直线 50" y1="3.055" x2="5.823" transform="translate(161.814 88.359)" fill="none" stroke="#f30" stroke-linecap="round" stroke-linejoin="round" stroke-width="6"/>
    <line id="直线_51" data-name="直线 51" y1="7.305" x2="12.841" transform="translate(139.807 90.155)" fill="none" stroke="#f30" stroke-linecap="round" stroke-linejoin="round" stroke-width="6"/>
    <line id="直线_52" data-name="直线 52" y1="3.055" x2="5.817" transform="translate(132.077 90.018)" fill="none" stroke="#f30" stroke-linecap="round" stroke-linejoin="round" stroke-width="6"/>
    <line id="直线_53" data-name="直线 53" y1="17.111" x2="29.489" transform="translate(178.252 49)" fill="none" stroke="#f30" stroke-linecap="round" stroke-linejoin="round" stroke-width="6"/>
    <line id="直线_54" data-name="直线 54" x1="29.489" y1="17.111" transform="translate(208.283 49)" fill="none" stroke="#f30" stroke-linecap="round" stroke-linejoin="round" stroke-width="6"/>
  </g>
</svg>
