<svg xmlns="http://www.w3.org/2000/svg" width="498.567" height="345.219" viewBox="0 0 498.567 345.219">
  <g id="组_11" data-name="组 11" transform="translate(-156.933 -500)">
    <g id="矩形_13" data-name="矩形 13" transform="translate(382 500)" fill="#e1e1e1" stroke="#b5b5b5" stroke-width="1">
      <rect width="52" height="62" stroke="none"/>
      <rect x="0.5" y="0.5" width="51" height="61" fill="none"/>
    </g>
    <g id="矩形_14" data-name="矩形 14" transform="translate(312 610)" fill="#e1e1e1" stroke="#b5b5b5" stroke-width="1">
      <rect width="190" height="74" stroke="none"/>
      <rect x="0.5" y="0.5" width="189" height="73" fill="none"/>
    </g>
    <g id="矩形_15" data-name="矩形 15" transform="translate(283 680)" fill="#e1e1e1" stroke="#b5b5b5" stroke-width="1">
      <rect width="250" height="107" stroke="none"/>
      <rect x="0.5" y="0.5" width="249" height="106" fill="none"/>
    </g>
    <g id="矩形_12" data-name="矩形 12" transform="translate(343 558)" fill="#e1e1e1" stroke="#afafaf" stroke-width="1">
      <rect width="130" height="52" stroke="none"/>
      <rect x="0.5" y="0.5" width="129" height="51" fill="none"/>
    </g>
    <path id="路径_18" data-name="路径 18" d="M234.65,1974.333v48.26H157.433v-48.26Z" transform="translate(420.35 -1177.875)" fill="#e1e1e1" stroke="#b5b5b5" stroke-width="1"/>
    <path id="路径_19" data-name="路径 19" d="M274.328,1969.233v58.326H194.767v-58.326Z" transform="translate(303.455 -1183.324)" fill="#e1e1e1" stroke="#b5b5b5" stroke-width="1"/>
    <path id="路径_20" data-name="路径 20" d="M275.647,1943.9h-73.08v52.811h73.08Z" transform="translate(286.003 -1210.388)" fill="#e1e1e1" stroke="#b5b5b5" stroke-width="1"/>
    <path id="路径_21" data-name="路径 21" d="M213.433,1949.847H227.5v-11.514H213.433Z" transform="translate(311.677 -1216.335)" fill="#e4e4e4" stroke="#b5b5b5" stroke-width="1"/>
    <path id="路径_22" data-name="路径 22" d="M213.433,1949.847H227.5v-11.514H213.433Z" transform="translate(311.677 -1239.086)" fill="#e4e4e4" stroke="#b5b5b5" stroke-width="1"/>
    <path id="路径_23" data-name="路径 23" d="M213.433,1949.847H227.5v-11.514H213.433Z" transform="translate(348.217 -1168.764)" fill="#e4e4e4" stroke="#b5b5b5" stroke-width="1"/>
    <path id="路径_24" data-name="路径 24" d="M213.433,1949.847H227.5v-11.514H213.433Z" transform="translate(282.72 -1274.247)" fill="#e4e4e4" stroke="#b5b5b5" stroke-width="1"/>
    <path id="路径_25" data-name="路径 25" d="M213.433,1949.847H227.5v-11.514H213.433Z" transform="translate(282.72 -1299.067)" fill="#e4e4e4" stroke="#b5b5b5" stroke-width="1"/>
    <rect id="矩形_3" data-name="矩形 3" width="4.137" height="39.298" transform="translate(529.729 746.129)" fill="#209bdf"/>
    <rect id="矩形_3-2" data-name="矩形 3" width="4.137" height="39.298" transform="translate(535.934 746.129)" fill="#209bdf"/>
    <rect id="矩形_3-3" data-name="矩形 3" width="4.137" height="39.298" transform="translate(542.139 746.129)" fill="#209bdf"/>
    <rect id="矩形_3-4" data-name="矩形 3" width="4.137" height="39.298" transform="translate(548.344 746.129)" fill="#209bdf"/>
    <rect id="矩形_3-5" data-name="矩形 3" width="4.137" height="39.298" transform="translate(498.705 746.129)" fill="#209bdf"/>
    <rect id="矩形_3-6" data-name="矩形 3" width="4.137" height="39.298" transform="translate(504.91 746.129)" fill="#209bdf"/>
    <rect id="矩形_3-7" data-name="矩形 3" width="4.137" height="39.298" transform="translate(511.115 746.129)" fill="#209bdf"/>
    <rect id="矩形_3-8" data-name="矩形 3" width="4.137" height="39.298" transform="translate(517.319 746.129)" fill="#209bdf"/>
    <rect id="矩形_4" data-name="矩形 4" width="12.41" height="6.205" transform="translate(581.437 806.11)" fill="#209bdf"/>
    <rect id="矩形_4-2" data-name="矩形 4" width="12.41" height="6.205" transform="translate(597.984 806.11)" fill="#209bdf"/>
    <rect id="矩形_4-3" data-name="矩形 4" width="12.41" height="6.205" transform="translate(614.53 806.11)" fill="#209bdf"/>
    <rect id="矩形_4-4" data-name="矩形 4" width="12.41" height="6.205" transform="translate(581.437 814.383)" fill="#209bdf"/>
    <rect id="矩形_4-5" data-name="矩形 4" width="12.41" height="6.205" transform="translate(597.984 814.383)" fill="#209bdf"/>
    <rect id="矩形_4-6" data-name="矩形 4" width="12.41" height="6.205" transform="translate(614.53 814.383)" fill="#209bdf"/>
    <rect id="矩形_4-7" data-name="矩形 4" width="12.41" height="6.205" transform="translate(581.437 822.656)" fill="#209bdf"/>
    <rect id="矩形_4-8" data-name="矩形 4" width="12.41" height="6.205" transform="translate(597.984 822.656)" fill="#209bdf"/>
    <rect id="矩形_4-9" data-name="矩形 4" width="12.41" height="6.205" transform="translate(614.53 822.656)" fill="#209bdf"/>
    <rect id="矩形_4-10" data-name="矩形 4" width="12.41" height="6.205" transform="translate(581.437 830.93)" fill="#209bdf"/>
    <rect id="矩形_4-11" data-name="矩形 4" width="12.41" height="6.205" transform="translate(597.984 830.93)" fill="#209bdf"/>
    <rect id="矩形_4-12" data-name="矩形 4" width="12.41" height="6.205" transform="translate(614.53 830.93)" fill="#209bdf"/>
    <rect id="矩形_5" data-name="矩形 5" width="12.41" height="51.708" transform="translate(556.617 791.632)" fill="#105d8b"/>
    <g id="矩形_6" data-name="矩形 6" transform="translate(533.866 795.768)" fill="#155c8a" stroke="#707070" stroke-width="1">
      <rect width="16.546" height="12.41" stroke="none"/>
      <rect x="0.5" y="0.5" width="15.546" height="11.41" fill="none"/>
    </g>
    <g id="矩形_7" data-name="矩形 7" transform="translate(533.866 820.588)" fill="#125c8b" stroke="#707070" stroke-width="1">
      <rect width="16.546" height="12.41" stroke="none"/>
      <rect x="0.5" y="0.5" width="15.546" height="11.41" fill="none"/>
    </g>
    <rect id="矩形_8" data-name="矩形 8" width="24.82" height="10.342" transform="translate(395.289 622.03)" fill="#209bdf"/>
    <rect id="矩形_8-2" data-name="矩形 8" width="24.82" height="10.342" transform="translate(426.314 622.03)" fill="#209bdf"/>
    <rect id="矩形_8-3" data-name="矩形 8" width="24.82" height="10.342" transform="translate(457.338 622.03)" fill="#209bdf"/>
    <rect id="矩形_8-4" data-name="矩形 8" width="24.82" height="10.342" transform="translate(395.289 644.782)" fill="#209bdf"/>
    <rect id="矩形_8-5" data-name="矩形 8" width="24.82" height="10.342" transform="translate(426.314 644.782)" fill="#209bdf"/>
    <rect id="矩形_8-6" data-name="矩形 8" width="24.82" height="10.342" transform="translate(457.338 644.782)" fill="#209bdf"/>
    <rect id="矩形_8-7" data-name="矩形 8" width="24.82" height="10.342" transform="translate(395.289 667.533)" fill="#209bdf"/>
    <rect id="矩形_8-8" data-name="矩形 8" width="24.82" height="10.342" transform="translate(426.314 667.533)" fill="#209bdf"/>
    <rect id="矩形_8-9" data-name="矩形 8" width="24.82" height="10.342" transform="translate(457.338 667.533)" fill="#209bdf"/>
    <rect id="矩形_8-10" data-name="矩形 8" width="24.82" height="10.342" transform="translate(395.289 690.285)" fill="#209bdf"/>
    <rect id="矩形_8-11" data-name="矩形 8" width="24.82" height="10.342" transform="translate(426.314 690.285)" fill="#209bdf"/>
    <rect id="矩形_8-12" data-name="矩形 8" width="24.82" height="10.342" transform="translate(457.338 690.285)" fill="#209bdf"/>
    <rect id="矩形_8-13" data-name="矩形 8" width="24.82" height="10.342" transform="translate(395.289 713.036)" fill="#209bdf"/>
    <rect id="矩形_8-14" data-name="矩形 8" width="24.82" height="10.342" transform="translate(426.314 713.036)" fill="#209bdf"/>
    <rect id="矩形_8-15" data-name="矩形 8" width="24.82" height="10.342" transform="translate(457.338 713.036)" fill="#209bdf"/>
    <rect id="矩形_8-16" data-name="矩形 8" width="24.82" height="10.342" transform="translate(395.289 735.787)" fill="#209bdf"/>
    <rect id="矩形_8-17" data-name="矩形 8" width="24.82" height="10.342" transform="translate(426.314 735.787)" fill="#209bdf"/>
    <rect id="矩形_8-18" data-name="矩形 8" width="24.82" height="10.342" transform="translate(457.338 735.787)" fill="#209bdf"/>
    <rect id="矩形_8-19" data-name="矩形 8" width="24.82" height="10.342" transform="translate(395.289 758.539)" fill="#209bdf"/>
    <rect id="矩形_8-20" data-name="矩形 8" width="24.82" height="10.342" transform="translate(426.314 758.539)" fill="#209bdf"/>
    <rect id="矩形_8-21" data-name="矩形 8" width="24.82" height="10.342" transform="translate(457.338 758.539)" fill="#209bdf"/>
    <rect id="矩形_9" data-name="矩形 9" width="26.888" height="12.41" transform="translate(428.382 576.528)" fill="#209bdf"/>
    <rect id="矩形_10" data-name="矩形 10" width="12.41" height="148.918" transform="translate(428.382 626.167)" fill="#226899"/>
    <rect id="矩形_11" data-name="矩形 11" width="12.41" height="148.918" transform="translate(411.836 626.167)" fill="#226899"/>
    <path id="路径_18-2" data-name="路径 18" d="M157.433,1974.333v48.26H234.65v-48.26Z" transform="translate(0 -1177.875)" fill="#e1e1e1" stroke="#b5b5b5" stroke-width="1"/>
    <path id="路径_19-2" data-name="路径 19" d="M194.767,1969.233v58.326h79.561v-58.326Z" transform="translate(39.884 -1183.324)" fill="#e1e1e1" stroke="#b5b5b5" stroke-width="1"/>
    <path id="路径_20-2" data-name="路径 20" d="M202.567,1943.9h73.08v52.811h-73.08Z" transform="translate(48.216 -1210.388)" fill="#e1e1e1" stroke="#b5b5b5" stroke-width="1"/>
    <path id="路径_21-2" data-name="路径 21" d="M227.5,1949.847H213.433v-11.514H227.5Z" transform="translate(59.825 -1216.335)" fill="#e4e4e4" stroke="#b5b5b5" stroke-width="1"/>
    <path id="路径_22-2" data-name="路径 22" d="M227.5,1949.847H213.433v-11.514H227.5Z" transform="translate(59.825 -1239.086)" fill="#e4e4e4" stroke="#b5b5b5" stroke-width="1"/>
    <path id="路径_23-2" data-name="路径 23" d="M227.5,1949.847H213.433v-11.514H227.5Z" transform="translate(23.285 -1168.764)" fill="#e4e4e4" stroke="#b5b5b5" stroke-width="1"/>
    <path id="路径_24-2" data-name="路径 24" d="M227.5,1949.847H213.433v-11.514H227.5Z" transform="translate(88.782 -1274.247)" fill="#e4e4e4" stroke="#b5b5b5" stroke-width="1"/>
    <path id="路径_25-2" data-name="路径 25" d="M227.5,1949.847H213.433v-11.514H227.5Z" transform="translate(88.782 -1299.067)" fill="#e4e4e4" stroke="#b5b5b5" stroke-width="1"/>
    <rect id="矩形_3-9" data-name="矩形 3" width="4" height="39" transform="translate(260 746)" fill="#209bdf"/>
    <rect id="矩形_3-10" data-name="矩形 3" width="4" height="39" transform="translate(266 746)" fill="#209bdf"/>
    <rect id="矩形_3-11" data-name="矩形 3" width="4" height="39" transform="translate(272 746)" fill="#209bdf"/>
    <rect id="矩形_3-12" data-name="矩形 3" width="4" height="39" transform="translate(279 746)" fill="#209bdf"/>
    <rect id="矩形_3-13" data-name="矩形 3" width="4" height="39" transform="translate(291 746)" fill="#209bdf"/>
    <rect id="矩形_3-14" data-name="矩形 3" width="4" height="39" transform="translate(297 746)" fill="#209bdf"/>
    <rect id="矩形_3-15" data-name="矩形 3" width="5" height="39" transform="translate(303 746)" fill="#209bdf"/>
    <rect id="矩形_3-16" data-name="矩形 3" width="4" height="39" transform="translate(310 746)" fill="#209bdf"/>
    <rect id="矩形_4-13" data-name="矩形 4" width="13" height="6" transform="translate(183 806)" fill="#209bdf"/>
    <rect id="矩形_4-14" data-name="矩形 4" width="12" height="6" transform="translate(200 806)" fill="#209bdf"/>
    <rect id="矩形_4-15" data-name="矩形 4" width="12" height="6" transform="translate(217 806)" fill="#209bdf"/>
    <rect id="矩形_4-16" data-name="矩形 4" width="13" height="7" transform="translate(183 814)" fill="#209bdf"/>
    <rect id="矩形_4-17" data-name="矩形 4" width="12" height="7" transform="translate(200 814)" fill="#209bdf"/>
    <rect id="矩形_4-18" data-name="矩形 4" width="12" height="7" transform="translate(217 814)" fill="#209bdf"/>
    <rect id="矩形_4-19" data-name="矩形 4" width="13" height="6" transform="translate(183 823)" fill="#209bdf"/>
    <rect id="矩形_4-20" data-name="矩形 4" width="12" height="6" transform="translate(200 823)" fill="#209bdf"/>
    <rect id="矩形_4-21" data-name="矩形 4" width="12" height="6" transform="translate(217 823)" fill="#209bdf"/>
    <rect id="矩形_4-22" data-name="矩形 4" width="13" height="6" transform="translate(183 831)" fill="#209bdf"/>
    <rect id="矩形_4-23" data-name="矩形 4" width="12" height="6" transform="translate(200 831)" fill="#209bdf"/>
    <rect id="矩形_4-24" data-name="矩形 4" width="12" height="6" transform="translate(217 831)" fill="#209bdf"/>
    <rect id="矩形_18" data-name="矩形 18" width="192" height="24" transform="translate(310 819)" fill="#23729d"/>
    <rect id="矩形_19" data-name="矩形 19" width="182" height="34" transform="translate(316 785)" fill="#226899"/>
    <rect id="矩形_5-2" data-name="矩形 5" width="13" height="51" transform="translate(243 792)" fill="#105d8b"/>
    <g id="矩形_6-2" data-name="矩形 6" transform="translate(262 796)" fill="#155c8a" stroke="#707070" stroke-width="1">
      <rect width="17" height="12" stroke="none"/>
      <rect x="0.5" y="0.5" width="16" height="11" fill="none"/>
    </g>
    <g id="矩形_7-2" data-name="矩形 7" transform="translate(262 821)" fill="#125c8b" stroke="#707070" stroke-width="1">
      <rect width="17" height="12" stroke="none"/>
      <rect x="0.5" y="0.5" width="16" height="11" fill="none"/>
    </g>
    <rect id="矩形_8-22" data-name="矩形 8" width="25" height="10" transform="translate(324 622)" fill="#209bdf"/>
    <rect id="矩形_8-23" data-name="矩形 8" width="25" height="10" transform="translate(355 622)" fill="#209bdf"/>
    <rect id="矩形_8-24" data-name="矩形 8" width="25" height="10" transform="translate(386 622)" fill="#209bdf"/>
    <rect id="矩形_8-25" data-name="矩形 8" width="25" height="10" transform="translate(324 645)" fill="#209bdf"/>
    <rect id="矩形_8-26" data-name="矩形 8" width="25" height="10" transform="translate(355 645)" fill="#209bdf"/>
    <rect id="矩形_8-27" data-name="矩形 8" width="25" height="10" transform="translate(386 645)" fill="#209bdf"/>
    <rect id="矩形_8-28" data-name="矩形 8" width="25" height="10" transform="translate(324 668)" fill="#209bdf"/>
    <rect id="矩形_8-29" data-name="矩形 8" width="25" height="10" transform="translate(355 668)" fill="#209bdf"/>
    <rect id="矩形_8-30" data-name="矩形 8" width="25" height="10" transform="translate(386 668)" fill="#209bdf"/>
    <rect id="矩形_8-31" data-name="矩形 8" width="25" height="11" transform="translate(324 690)" fill="#209bdf"/>
    <rect id="矩形_8-32" data-name="矩形 8" width="25" height="11" transform="translate(355 690)" fill="#209bdf"/>
    <rect id="矩形_8-33" data-name="矩形 8" width="25" height="11" transform="translate(386 690)" fill="#209bdf"/>
    <rect id="矩形_8-34" data-name="矩形 8" width="25" height="10" transform="translate(324 713)" fill="#209bdf"/>
    <rect id="矩形_8-35" data-name="矩形 8" width="25" height="10" transform="translate(355 713)" fill="#209bdf"/>
    <rect id="矩形_8-36" data-name="矩形 8" width="25" height="10" transform="translate(386 713)" fill="#209bdf"/>
    <rect id="矩形_8-37" data-name="矩形 8" width="25" height="10" transform="translate(324 736)" fill="#209bdf"/>
    <rect id="矩形_8-38" data-name="矩形 8" width="25" height="10" transform="translate(355 736)" fill="#209bdf"/>
    <rect id="矩形_8-39" data-name="矩形 8" width="25" height="10" transform="translate(386 736)" fill="#209bdf"/>
    <rect id="矩形_8-40" data-name="矩形 8" width="25" height="10" transform="translate(324 759)" fill="#209bdf"/>
    <rect id="矩形_8-41" data-name="矩形 8" width="25" height="10" transform="translate(355 759)" fill="#209bdf"/>
    <rect id="矩形_8-42" data-name="矩形 8" width="25" height="10" transform="translate(386 759)" fill="#209bdf"/>
    <rect id="矩形_9-2" data-name="矩形 9" width="27" height="12" transform="translate(357 577)" fill="#209bdf"/>
    <rect id="矩形_10-2" data-name="矩形 10" width="12" height="149" transform="translate(372 626)" fill="#226899"/>
    <rect id="矩形_11-2" data-name="矩形 11" width="13" height="149" transform="translate(388 626)" fill="#226899"/>
    <rect id="矩形_16" data-name="矩形 16" width="12" height="12" transform="translate(401 577)" fill="#209bdf"/>
    <rect id="矩形_17" data-name="矩形 17" width="130" height="13" transform="translate(343 597)" fill="#989898"/>
    <rect id="矩形_20" data-name="矩形 20" width="11" height="56" transform="translate(357 787)" fill="#707070"/>
    <rect id="矩形_21" data-name="矩形 21" width="10" height="56" transform="translate(378 787)" fill="#707070"/>
    <rect id="矩形_22" data-name="矩形 22" width="11" height="56" transform="translate(423 787)" fill="#707070"/>
    <rect id="矩形_23" data-name="矩形 23" width="11" height="56" transform="translate(450 787)" fill="#707070"/>
  </g>
</svg>
