<svg id="左菜单" xmlns="http://www.w3.org/2000/svg" width="94" height="88" viewBox="0 0 94 88">
  <rect id="矩形_73" data-name="矩形 73" width="94" height="88"/>
  <g id="menu" transform="translate(9.709 12)">
    <path id="menu-2" data-name="menu" d="M128,162.845A2.845,2.845,0,0,1,130.845,160h62.6a2.845,2.845,0,0,1,0,5.691h-62.6A2.845,2.845,0,0,1,128,162.845Zm0,28.455a2.845,2.845,0,0,1,2.845-2.845h45.527a2.845,2.845,0,0,1,0,5.691H130.845A2.845,2.845,0,0,1,128,191.3Zm2.845,25.609a2.845,2.845,0,0,0,0,5.691H159.3a2.845,2.845,0,0,0,0-5.691Z" transform="translate(-128 -160)" fill="#e5e5e5"/>
  </g>
</svg>
